<?xml version="1.0" standalone="no"?>
<!DOCTYPE svg PUBLIC "-//W3C//DTD SVG 20010904//EN"
 "http://www.w3.org/TR/2001/REC-SVG-20010904/DTD/svg10.dtd">
<svg version="1.0" xmlns="http://www.w3.org/2000/svg"
 width="900.000000pt" height="900.000000pt" viewBox="0 0 900.000000 900.000000"
 preserveAspectRatio="xMidYMid meet">
<metadata>
Created by potrace 1.10, written by Peter Selinger 2001-2011
</metadata>
<g transform="translate(0.000000,900.000000) scale(0.100000,-0.100000)"
fill="#000000" stroke="none">
<path d="M3381 8693 c-39 -5 -92 -42 -123 -86 -37 -52 -44 -124 -35 -340 5
-109 6 -209 3 -222 -5 -19 -23 -30 -86 -54 -225 -87 -523 -241 -736 -381 -38
-25 -198 -138 -219 -154 -11 -9 -38 -30 -60 -47 -39 -30 -120 -100 -240 -209
-136 -123 -390 -415 -508 -585 -138 -198 -340 -569 -403 -737 -129 -350 -206
-632 -234 -865 -5 -39 -14 -91 -21 -115 -9 -31 -13 -158 -13 -443 0 -332 2
-415 16 -490 9 -49 24 -135 33 -190 33 -196 99 -437 176 -645 17 -47 38 -101
45 -121 32 -88 144 -318 219 -449 249 -436 591 -823 1015 -1146 112 -85 267
-194 277 -194 4 0 14 -6 22 -14 9 -7 52 -33 96 -56 44 -24 103 -56 130 -71 62
-34 118 -62 170 -84 22 -9 68 -30 102 -46 35 -16 67 -29 72 -29 7 0 59 -21
126 -50 20 -9 160 -54 260 -83 28 -8 84 -22 125 -32 41 -9 100 -23 130 -30
264 -64 792 -93 1120 -61 183 18 337 40 420 61 253 63 327 82 405 107 50 16
99 33 110 38 67 29 119 50 126 50 4 0 38 14 76 31 37 17 84 37 103 46 49 21
108 50 155 77 22 12 81 44 130 71 50 26 97 54 106 61 8 8 18 14 22 14 10 0
165 109 277 194 282 215 561 494 761 761 127 169 207 297 316 504 25 46 49 91
54 100 16 30 99 212 99 219 0 4 13 39 28 77 79 193 161 488 196 695 48 295 51
325 50 680 0 223 -4 366 -12 405 -6 33 -16 101 -22 150 -20 178 -74 408 -148
630 -41 122 -156 402 -173 419 -5 6 -9 15 -9 21 0 11 -102 208 -156 300 -210
362 -589 796 -893 1024 -25 19 -62 48 -81 65 -30 26 -98 75 -205 146 -177 118
-402 237 -628 334 -60 25 -122 53 -138 61 l-29 15 -2 178 c-2 112 -7 176 -13
175 -15 -4 -13 -535 2 -540 8 -3 13 12 15 44 3 45 5 48 28 45 24 -2 81 -26
143 -57 16 -8 33 -15 39 -15 22 0 283 -136 411 -214 37 -22 76 -45 85 -51 34
-19 127 -79 132 -85 3 -3 30 -23 60 -45 165 -118 391 -320 557 -498 80 -85
244 -291 308 -385 69 -102 141 -212 159 -242 41 -72 227 -445 235 -473 5 -18
19 -57 31 -87 20 -53 75 -215 104 -310 38 -121 101 -422 110 -520 3 -30 10
-98 16 -150 14 -123 14 -567 0 -690 -6 -52 -13 -120 -16 -150 -10 -113 -77
-414 -129 -585 -95 -306 -176 -490 -360 -820 -16 -27 -62 -99 -103 -160 -105
-153 -116 -169 -123 -175 -4 -3 -19 -23 -33 -45 -54 -80 -270 -316 -389 -426
-67 -61 -140 -128 -162 -149 -49 -45 -318 -243 -373 -275 -10 -5 -31 -20 -47
-31 -58 -42 -324 -183 -465 -247 -74 -34 -287 -117 -299 -117 -6 0 -25 -6 -43
-14 -82 -34 -297 -90 -468 -120 -303 -54 -456 -69 -720 -67 -163 0 -478 23
-498 35 -4 2 -43 9 -87 15 -78 11 -102 15 -250 48 -381 83 -813 267 -1175 502
-82 53 -299 212 -350 257 -208 181 -490 473 -555 575 -13 20 -29 42 -37 50
-15 17 -29 36 -130 184 -41 61 -87 133 -103 160 -184 330 -265 514 -360 820
-52 171 -119 472 -129 585 -3 30 -10 98 -16 150 -14 123 -14 568 0 690 6 52
13 120 16 150 9 100 72 397 110 520 29 95 84 257 104 310 12 30 26 69 31 87 8
28 194 401 235 473 18 30 90 140 159 242 207 304 561 666 865 883 30 22 57 42
60 45 5 6 99 66 132 85 9 6 66 40 125 76 114 70 349 189 374 189 8 0 19 4 25
9 12 12 174 81 190 81 21 0 23 -24 12 -201 -5 -96 -10 -212 -11 -259 -1 -110
20 -249 43 -275 9 -11 20 -28 23 -37 7 -19 -19 -78 -34 -78 -5 0 -9 -6 -9 -12
0 -11 -41 -80 -98 -164 -7 -10 -15 -27 -18 -36 -4 -10 -10 -18 -15 -18 -5 0
-14 -10 -19 -22 -6 -13 -19 -36 -30 -53 -11 -16 -24 -40 -30 -52 -5 -13 -13
-23 -17 -23 -5 0 -14 -13 -21 -29 -7 -16 -28 -50 -47 -75 -19 -24 -35 -50 -35
-56 0 -6 -7 -18 -15 -26 -9 -9 -15 -34 -15 -59 0 -62 40 -107 112 -124 42 -10
309 -11 1293 -6 1709 9 1763 10 1715 34 -8 4 -274 4 -590 1 -316 -3 -982 -7
-1479 -8 -953 -2 -965 -2 -1003 43 -19 22 -26 125 -9 125 6 0 16 11 23 24 7
14 43 69 81 123 37 54 67 104 67 111 0 7 5 12 10 12 6 0 15 10 20 23 6 12 19
36 30 52 11 17 23 37 27 45 3 8 18 31 33 50 15 19 30 42 34 50 8 18 25 46 50
83 17 25 24 27 85 27 69 0 70 13 1 25 -54 9 -105 61 -114 115 -4 24 -12 50
-18 57 -11 14 -9 98 12 363 6 75 10 301 8 507 l-3 372 44 45 c42 43 46 45 120
51 42 3 96 9 121 12 43 6 44 7 15 14 -33 7 -119 8 -174 2z"/>
<path d="M3925 8691 l-40 -6 34 -8 c47 -10 201 -9 201 2 0 5 -7 12 -16 15 -19
7 -124 6 -179 -3z"/>
<path d="M4350 8680 c0 -7 212 -10 615 -10 403 0 615 3 615 10 0 7 -212 10
-615 10 -403 0 -615 -3 -615 -10z"/>
<path d="M3510 8554 c-25 -9 -57 -29 -71 -46 l-25 -30 1 -567 c2 -421 6 -573
15 -592 22 -47 78 -63 255 -71 279 -14 788 -19 835 -10 32 7 -49 10 -275 11
-176 1 -338 6 -360 11 -22 5 -116 13 -210 16 l-170 7 -34 36 -34 36 9 140 c11
167 10 370 -1 713 -9 284 -11 273 67 313 33 17 61 19 233 19 153 0 196 3 193
13 -7 20 -369 21 -428 1z"/>
<path d="M4696 8255 c-9 -14 -21 -35 -26 -48 -6 -12 -19 -35 -30 -52 -11 -16
-24 -40 -29 -52 -5 -11 -15 -24 -20 -28 -6 -3 -11 -15 -11 -26 0 -10 -5 -19
-10 -19 -6 0 -15 -10 -20 -22 -6 -13 -19 -36 -30 -53 -11 -16 -24 -40 -30 -52
-5 -13 -14 -23 -19 -23 -5 0 -12 -8 -15 -17 -9 -24 -31 -62 -45 -76 -13 -13
-15 -37 -2 -37 6 0 44 53 86 118 43 64 86 129 96 144 10 15 19 30 19 34 0 3
14 26 30 51 17 24 30 50 30 58 0 8 5 17 11 20 5 4 14 17 20 28 5 12 14 30 21
39 9 13 9 21 2 28 -8 8 -16 4 -28 -15z"/>
<path d="M4227 8220 c-20 -27 -37 -54 -37 -59 0 -5 -3 -11 -7 -13 -8 -3 -51
-62 -83 -113 -38 -59 -97 -145 -137 -197 -24 -31 -43 -60 -43 -63 0 -4 -13
-24 -30 -45 -16 -21 -30 -43 -30 -49 0 -6 -3 -11 -8 -11 -10 0 -47 -69 -40
-76 7 -7 48 27 48 39 0 5 14 26 30 47 17 21 30 40 30 43 0 6 85 125 110 154 5
7 10 15 10 19 0 3 14 23 30 44 17 21 30 43 30 49 0 6 5 11 10 11 6 0 15 10 20
23 11 24 28 52 48 76 42 51 102 143 102 156 0 26 -15 16 -53 -35z"/>
<path d="M5073 8178 c-17 -28 -33 -56 -73 -133 -23 -44 -52 -98 -65 -120 -13
-22 -24 -47 -25 -57 0 -9 -4 -18 -8 -20 -11 -4 -82 -146 -82 -163 0 -7 -7 -15
-15 -19 -8 -3 -15 -14 -15 -24 0 -10 -5 -23 -12 -30 -6 -6 -9 -14 -6 -17 11
-11 37 7 47 33 6 15 15 34 20 42 5 8 19 35 31 60 21 45 31 64 50 98 6 9 13 24
16 32 14 34 47 97 65 125 10 17 21 36 24 43 11 28 16 38 28 58 7 12 18 28 24
35 15 20 25 69 14 69 -5 0 -13 -6 -18 -12z"/>
<path d="M5756 7663 c-3 -3 -6 -42 -6 -85 0 -63 3 -78 15 -78 12 0 15 15 15
79 0 74 -7 100 -24 84z"/>
<path d="M5378 7271 c-98 -9 -94 -21 6 -21 63 0 87 3 84 12 -5 15 -10 16 -90
9z"/>
<path d="M4700 7262 c-34 -11 177 -22 379 -21 117 1 146 4 116 10 -53 12 -463
21 -495 11z"/>
<path d="M4740 7149 c-1303 -9 -1311 -9 -1265 -21 46 -12 121 -12 1293 -3 737
6 885 10 845 27 -5 2 -397 0 -873 -3z"/>
<path d="M3851 7037 c-11 -19 -21 -40 -21 -47 0 -28 -35 -39 -122 -40 -78 0
-88 2 -88 18 0 10 7 27 15 38 17 22 20 54 5 54 -6 0 -15 -10 -21 -22 -13 -30
-34 -67 -43 -76 -4 -4 -51 -9 -104 -12 -116 -6 -125 -23 -15 -30 43 -3 78 -10
80 -16 2 -6 -8 -25 -22 -42 -24 -29 -31 -31 -103 -34 -91 -4 -103 -22 -17 -26
33 -2 64 -7 69 -12 4 -4 -2 -22 -15 -39 -22 -30 -26 -31 -93 -31 -39 0 -77 -4
-85 -9 -27 -17 1 -31 65 -31 49 0 64 -3 64 -14 0 -8 -4 -18 -10 -21 -13 -8
-13 -45 0 -45 6 0 15 10 20 23 23 55 29 57 154 57 126 0 134 -4 100 -54 -8
-13 -11 -27 -6 -30 9 -5 43 36 55 66 6 16 47 18 604 20 329 2 608 2 621 0 14
-2 27 -14 33 -29 10 -27 37 -58 44 -51 3 2 -1 18 -7 36 -7 17 -9 34 -6 37 5 6
92 8 209 5 20 0 30 -10 48 -45 12 -25 27 -43 32 -40 14 9 11 32 -7 50 -10 9
-13 20 -8 25 5 5 122 10 261 12 138 2 255 7 259 11 18 18 -28 27 -145 27 -122
0 -123 0 -145 27 -11 15 -21 32 -21 38 0 6 46 12 115 15 155 7 146 24 -14 28
l-125 3 -26 31 c-14 17 -24 36 -22 42 2 7 46 13 118 16 66 3 114 9 114 15 0 6
-54 12 -132 15 -72 3 -134 8 -138 12 -4 3 -17 26 -30 49 -12 24 -28 45 -34 47
-18 6 -12 -27 11 -58 32 -45 17 -51 -108 -48 -108 3 -109 3 -122 31 -7 15 -17
27 -21 27 -5 0 -12 12 -15 26 -4 14 -12 24 -19 21 -15 -5 -10 -37 9 -58 8 -8
14 -23 14 -32 0 -15 -12 -17 -86 -17 -92 0 -124 10 -124 40 0 10 -6 25 -13 32
-7 7 -16 21 -20 31 -3 9 -11 17 -17 17 -15 0 -12 -31 5 -50 8 -9 16 -27 17
-41 l3 -24 -105 0 -105 0 -6 38 c-6 39 -33 76 -46 64 -3 -4 -1 -13 5 -19 7 -7
12 -29 12 -50 l0 -38 -105 0 c-77 0 -105 3 -106 13 0 6 -1 31 -2 54 -3 56 -21
56 -25 1 -5 -65 -10 -68 -135 -68 l-110 0 6 57 c5 51 5 55 -10 40 -9 -8 -19
-33 -22 -54 l-6 -38 -105 0 -105 0 3 30 c2 17 11 38 20 48 11 12 12 21 5 28
-7 7 -17 0 -32 -24z m-67 -126 c10 -15 -25 -71 -47 -76 -12 -3 -58 -5 -102 -3
l-80 3 3 30 c2 17 11 36 20 43 18 14 198 17 206 3z m258 -26 c-5 -48 -25 -56
-137 -53 -96 3 -100 4 -103 26 -2 13 4 32 14 43 16 18 29 19 123 17 l106 -3
-3 -30z m282 29 c22 -9 20 -40 -4 -64 -19 -19 -31 -20 -133 -18 l-112 3 -3 28
c-6 50 9 57 128 57 60 0 115 -3 124 -6z m271 -8 c16 -12 18 -19 10 -43 l-10
-28 -110 0 c-109 0 -110 0 -119 26 -18 53 -7 59 107 59 73 0 109 -4 122 -14z
m269 -17 c31 -53 20 -59 -104 -59 l-110 0 -14 33 c-21 50 -8 57 108 57 l102 0
18 -31z m238 14 c10 -9 18 -29 18 -45 l0 -28 -90 0 c-94 0 -93 0 -138 54 -23
28 -3 36 95 36 76 0 100 -4 115 -17z m271 5 c9 -7 17 -26 19 -43 l3 -30 -100
-2 c-106 -3 -123 3 -152 54 -17 29 -9 31 113 32 66 1 106 -3 117 -11z m-1643
-119 c0 -6 -9 -24 -21 -40 -20 -29 -21 -29 -120 -29 -93 0 -99 1 -99 21 0 11
5 29 10 40 10 17 22 19 120 19 73 0 110 -4 110 -11z m287 -5 c3 -8 1 -26 -5
-40 -11 -24 -14 -24 -136 -24 -110 0 -125 2 -129 18 -2 9 5 27 16 40 19 20 29
22 134 22 94 0 115 -3 120 -16z m303 1 c10 -12 10 -21 2 -41 -12 -25 -12 -25
-138 -22 -106 3 -129 6 -138 20 -8 13 -6 22 8 37 17 19 31 21 136 21 93 0 120
-3 130 -15z m300 -9 c25 -48 11 -54 -115 -58 -65 -2 -120 1 -126 7 -5 5 -9 24
-9 42 l0 33 118 0 c115 0 119 -1 132 -24z m296 -1 c30 -46 16 -53 -112 -57
l-116 -3 -20 28 c-36 50 -22 57 111 57 117 0 121 -1 137 -25z m258 3 c9 -12
16 -30 16 -40 0 -16 -11 -18 -103 -18 l-103 0 -23 30 c-12 17 -19 35 -16 40 3
6 53 10 110 10 96 0 105 -2 119 -22z m275 -4 c39 -49 31 -54 -86 -54 -96 0
-109 2 -130 22 -13 12 -23 30 -23 40 0 16 10 18 109 18 106 0 110 -1 130 -26z"/>
<path d="M2245 6568 c-124 -128 -173 -183 -271 -313 -81 -108 -184 -265 -184
-282 0 -4 -7 -14 -15 -23 -27 -30 -172 -334 -215 -450 -15 -41 -36 -100 -48
-130 -11 -30 -27 -82 -37 -115 -9 -33 -22 -82 -30 -110 -17 -61 -38 -171 -62
-325 -14 -94 -17 -175 -17 -445 1 -337 9 -430 40 -456 12 -10 18 -9 29 2 10
11 11 25 5 59 -5 25 -14 127 -21 227 -20 313 12 640 92 933 48 179 54 197 97
321 71 203 240 524 356 678 23 29 55 72 71 95 17 23 41 55 55 71 101 117 172
197 231 258 37 39 66 75 63 79 -3 4 -17 8 -31 8 -20 0 -47 -21 -108 -82z"/>
<path d="M6596 6642 c-3 -4 26 -40 63 -79 77 -81 193 -211 233 -263 151 -197
253 -359 358 -568 63 -127 158 -361 180 -447 5 -16 23 -84 40 -150 18 -66 37
-147 42 -180 5 -33 13 -85 19 -115 23 -124 33 -444 21 -658 -7 -114 -15 -219
-18 -233 -4 -19 -1 -28 11 -33 56 -21 69 68 69 464 0 266 -3 342 -18 420 -9
52 -24 133 -32 180 -9 47 -22 108 -29 135 -8 28 -24 88 -36 135 -12 47 -39
132 -60 189 -21 57 -39 108 -39 112 0 23 -157 331 -226 446 -131 215 -307 439
-487 616 -36 35 -79 49 -91 29z"/>
<path d="M3007 6494 c-4 -4 -4 -11 -1 -15 3 -5 587 -9 1300 -9 1144 0 1294 2
1294 15 0 13 -150 15 -1293 15 -712 0 -1297 -3 -1300 -6z"/>
<path d="M3307 5954 c-4 -4 -7 -111 -7 -238 0 -296 14 -355 101 -429 46 -40
143 -77 202 -77 94 0 200 56 253 133 48 69 55 122 52 382 l-3 230 -82 3 c-46
2 -83 -1 -83 -5 0 -4 -1 -116 -3 -248 -2 -265 -7 -289 -67 -320 -58 -30 -144
-11 -172 38 -9 15 -14 96 -18 277 l-5 255 -80 3 c-45 1 -84 0 -88 -4z"/>
<path d="M3997 5953 c-4 -7 24 -121 57 -233 14 -47 31 -108 61 -220 17 -64 24
-87 62 -220 l19 -65 98 0 97 0 18 55 c10 30 33 111 51 180 44 173 45 175 63
178 11 2 18 -6 22 -25 6 -27 12 -51 50 -193 35 -130 49 -175 58 -187 13 -18
181 -18 195 0 6 7 16 35 22 62 7 28 18 70 25 95 8 25 28 99 46 165 17 66 37
138 44 160 7 22 16 54 19 70 3 17 15 62 25 100 11 39 16 74 12 78 -4 4 -45 7
-91 5 -61 -2 -85 -7 -90 -18 -5 -8 -16 -60 -25 -115 -10 -55 -24 -123 -31
-152 -8 -28 -14 -60 -14 -70 0 -31 -30 -123 -40 -123 -5 0 -12 17 -15 38 -4
20 -12 60 -19 87 -7 28 -21 86 -31 130 -11 44 -26 112 -36 150 l-17 70 -99 3
-100 3 -16 -63 c-8 -35 -23 -97 -33 -138 -9 -41 -22 -95 -29 -120 -8 -25 -16
-63 -20 -85 -4 -21 -14 -53 -22 -70 l-16 -30 -7 25 c-4 14 -15 59 -24 100 -10
41 -24 102 -31 135 -8 33 -21 94 -31 135 -24 109 -19 105 -117 108 -47 1 -87
-1 -90 -5z"/>
<path d="M5127 5953 c-4 -3 -7 -167 -7 -363 0 -263 3 -359 12 -368 20 -20 358
-16 425 5 97 31 152 112 140 206 -7 54 -51 115 -95 134 l-36 15 46 42 c115
104 87 254 -58 317 -40 17 -70 19 -233 19 -103 0 -191 -3 -194 -7z m327 -133
c48 -18 63 -85 30 -135 -16 -25 -20 -26 -98 -23 l-81 3 -3 60 c-5 99 -1 105
68 105 32 0 70 -4 84 -10z m14 -306 c26 -7 52 -51 52 -89 0 -14 -11 -37 -25
-50 -21 -22 -33 -25 -103 -25 -64 0 -81 3 -86 16 -11 28 -6 130 6 142 13 13
116 16 156 6z"/>
<path d="M3745 4831 c-81 -22 -145 -61 -197 -121 -63 -72 -83 -133 -82 -250 1
-81 5 -103 28 -151 33 -68 91 -129 165 -172 54 -31 60 -32 171 -32 108 0 119
2 174 30 95 48 191 173 153 197 -7 4 -47 8 -89 8 l-77 0 -51 -45 c-48 -42 -54
-45 -109 -45 -48 0 -65 5 -98 29 -67 49 -87 91 -87 185 1 124 44 191 138 217
58 16 123 -2 159 -44 26 -31 31 -32 113 -36 101 -4 118 5 101 52 -14 42 -102
128 -152 149 -64 26 -145 48 -174 47 -14 -1 -53 -8 -86 -18z"/>
<path d="M4460 4832 c-129 -39 -180 -98 -180 -209 0 -118 38 -152 237 -213 39
-12 80 -32 92 -44 46 -48 11 -116 -59 -116 -36 0 -80 28 -80 51 0 25 -35 39
-95 39 -85 0 -95 -5 -95 -46 0 -71 57 -143 143 -179 48 -20 195 -20 243 0 123
51 183 167 140 269 -29 70 -80 100 -243 145 -55 15 -103 56 -103 87 0 28 41
74 65 74 29 0 76 -31 85 -56 10 -24 12 -25 97 -22 76 3 88 5 91 21 9 45 -10
90 -56 136 -38 37 -59 49 -114 64 -79 20 -96 20 -168 -1z"/>
<path d="M5140 4835 c-19 -7 -43 -14 -53 -14 -16 -1 -64 -30 -93 -57 -35 -31
-54 -81 -54 -137 0 -113 49 -161 215 -207 127 -36 174 -99 113 -152 -29 -26
-92 -24 -118 4 -11 12 -20 25 -20 29 0 25 -35 39 -95 39 -83 0 -95 -5 -95 -43
0 -70 61 -148 145 -183 48 -20 193 -19 247 2 121 47 181 180 128 284 -30 59
-96 97 -207 120 -122 26 -174 113 -93 155 40 21 75 10 107 -31 25 -33 27 -34
103 -34 94 0 103 7 87 73 -15 69 -80 126 -169 150 -77 20 -100 20 -148 2z"/>
<path d="M2800 4436 c-26 -33 -1 -36 276 -36 l275 0 -3 23 -3 22 -266 3 c-225
2 -268 0 -279 -12z"/>
<path d="M5664 4415 c-4 -8 -4 -22 0 -30 5 -13 42 -15 273 -13 l268 3 0 25 0
25 -268 3 c-231 2 -268 0 -273 -13z"/>
<path d="M3630 3712 c-58 -16 -112 -55 -141 -100 -28 -43 -30 -53 -27 -119 3
-66 6 -75 37 -107 36 -38 98 -68 184 -90 109 -28 142 -63 121 -124 -19 -55
-123 -49 -156 8 l-18 31 -82 -3 -83 -3 1 -43 c2 -88 82 -160 205 -183 73 -13
141 -3 211 32 76 38 128 137 113 216 -16 89 -69 131 -220 173 -44 12 -90 31
-102 42 -30 28 -37 65 -18 94 12 19 24 24 59 24 38 0 47 -4 71 -35 l27 -36 81
3 82 3 3 37 c5 61 -37 122 -109 158 -33 17 -65 24 -129 26 -47 2 -96 0 -110
-4z"/>
<path d="M4315 3708 c-36 -106 -93 -275 -120 -358 -19 -58 -39 -118 -45 -135
-41 -114 -71 -218 -66 -230 4 -11 24 -15 81 -15 74 0 76 0 95 33 11 17 20 42
20 54 0 44 23 53 140 53 60 0 115 -3 124 -6 9 -3 23 -30 32 -60 9 -30 24 -58
34 -64 27 -15 145 -13 158 3 12 14 -218 715 -240 728 -22 14 -208 11 -213 -3z
m133 -275 c29 -73 54 -164 49 -178 -8 -19 -147 -23 -147 -3 0 31 64 208 75
208 7 0 17 -12 23 -27z"/>
<path d="M5105 3711 c-80 -19 -175 -89 -222 -165 -66 -104 -69 -267 -9 -385
25 -47 100 -118 155 -145 25 -13 74 -29 108 -36 108 -22 234 16 324 97 43 39
84 107 74 123 -3 6 -48 10 -99 10 -90 0 -93 -1 -121 -30 -52 -54 -150 -62
-222 -19 -94 58 -110 272 -25 351 42 40 66 48 138 48 64 0 68 -1 102 -37 35
-38 36 -38 127 -41 108 -4 120 6 83 67 -39 63 -77 97 -144 132 -58 29 -77 33
-152 35 -48 1 -100 -1 -117 -5z"/>
<path d="M1719 3471 c-20 -16 -24 -27 -22 -68 3 -63 -3 -90 -22 -97 -38 -14
-73 42 -44 71 16 16 1 53 -21 53 -28 0 -43 -36 -37 -89 4 -34 12 -52 36 -73
68 -61 152 -11 136 82 -8 45 7 80 35 80 28 0 43 -33 29 -64 -15 -32 -5 -56 21
-56 49 0 49 102 0 152 -34 33 -77 37 -111 9z"/>
<path d="M7119 3418 c-15 -27 -1 -39 79 -63 31 -10 62 -21 67 -25 6 -4 32 -13
58 -20 41 -11 50 -11 61 1 19 20 49 107 41 119 -13 21 -36 9 -51 -25 -8 -19
-18 -35 -24 -35 -16 0 -175 53 -184 61 -17 15 -35 10 -47 -13z"/>
<path d="M7057 3263 c-19 -18 0 -37 71 -69 74 -34 86 -39 143 -62 28 -11 59 0
59 21 0 17 -21 28 -133 76 -93 40 -127 48 -140 34z"/>
<path d="M1892 3188 l3 -43 -97 -48 c-75 -37 -98 -52 -98 -68 0 -40 28 -33
184 41 42 20 61 17 77 -11 11 -22 35 -25 42 -6 3 7 -13 50 -35 95 -29 60 -45
82 -59 82 -16 0 -19 -6 -17 -42z"/>
<path d="M7013 3090 c-87 -39 -120 -145 -69 -221 88 -129 283 -62 274 94 -3
48 -5 52 -28 52 -23 0 -25 -4 -30 -57 -7 -72 -25 -93 -85 -93 -64 0 -97 34
-93 94 3 41 7 48 46 74 39 26 54 58 34 71 -4 2 -26 -4 -49 -14z"/>
<path d="M1950 2910 c-117 -78 -136 -143 -63 -216 51 -51 93 -48 200 18 67 41
83 56 81 72 -5 35 -34 30 -108 -19 -84 -55 -126 -58 -148 -12 -19 39 -1 64 88
116 57 34 71 47 68 64 -5 36 -38 29 -118 -23z"/>
<path d="M6813 2803 c-7 -2 -13 -14 -13 -26 0 -16 17 -33 60 -61 33 -22 59
-45 57 -50 -2 -7 -38 -10 -101 -7 -82 2 -100 0 -117 -15 -28 -25 -24 -35 32
-74 28 -19 56 -39 62 -45 32 -27 106 -75 116 -75 6 0 15 9 21 19 12 24 2 35
-70 82 -27 17 -47 36 -44 40 3 5 52 9 109 9 95 0 105 2 115 21 15 27 1 42
-114 121 -102 71 -97 68 -113 61z"/>
<path d="M2120 2602 c-52 -43 -96 -85 -98 -95 -5 -24 64 -105 109 -128 49 -25
75 -24 123 4 59 34 81 69 81 131 -1 45 -6 59 -44 109 -24 31 -51 57 -60 56 -9
0 -59 -35 -111 -77z m157 -45 c13 -31 13 -43 3 -67 -14 -35 -66 -70 -103 -70
-28 0 -87 44 -87 65 0 7 28 36 61 65 76 62 104 64 126 7z"/>
<path d="M6597 2523 c-18 -17 -1 -44 63 -106 73 -69 81 -87 54 -125 -27 -38
-62 -28 -134 38 -39 36 -74 59 -88 60 -43 0 -22 -42 57 -113 66 -59 79 -67
114 -67 73 0 140 79 123 145 -8 31 -57 87 -119 137 -50 39 -59 43 -70 31z"/>
<path d="M2361 2325 c-56 -54 -101 -103 -101 -108 0 -14 95 -107 109 -107 24
0 22 30 -4 54 -30 27 -31 62 -3 80 13 8 24 5 47 -12 53 -39 87 -24 45 21 -29
31 -31 63 -5 77 26 13 24 14 55 -15 15 -14 33 -25 41 -25 33 0 24 26 -28 78
l-56 56 -100 -99z"/>
<path d="M6320 2243 c-29 -10 -80 -67 -91 -100 -17 -53 -3 -105 39 -145 51
-49 100 -65 142 -48 69 29 120 91 120 147 0 39 -39 103 -79 130 -33 22 -94 30
-131 16z m93 -64 c35 -16 60 -64 53 -102 -13 -65 -102 -93 -151 -47 -31 29
-39 64 -24 107 16 48 69 66 122 42z"/>
<path d="M2583 2157 c-102 -126 -119 -156 -94 -171 16 -10 35 3 81 58 24 30
48 52 53 49 5 -3 6 -51 2 -108 -7 -97 -6 -104 13 -114 16 -8 24 -7 40 7 27 24
162 193 162 203 0 5 -10 14 -22 20 -19 10 -24 8 -41 -12 -43 -54 -86 -99 -95
-99 -6 0 -6 19 0 50 5 28 8 78 6 112 -3 52 -6 62 -25 69 -19 7 -30 -1 -80 -64z"/>
<path d="M2903 2013 c-4 -11 3 -24 21 -38 28 -22 28 -22 11 -56 -10 -19 -35
-60 -56 -92 -42 -63 -49 -94 -22 -104 19 -8 46 23 104 120 33 55 45 68 60 63
10 -3 27 -9 38 -12 19 -6 34 15 23 33 -7 9 -158 103 -168 103 -2 0 -7 -7 -11
-17z"/>
<path d="M6010 2014 c-71 -30 -111 -114 -89 -182 14 -45 69 -98 110 -107 72
-16 160 34 178 102 12 42 8 53 -20 53 -13 0 -25 -13 -36 -39 -35 -82 -132 -82
-168 0 -15 33 -16 43 -5 69 15 37 56 60 105 60 42 0 59 25 30 46 -24 18 -61
17 -105 -2z"/>
<path d="M5613 1790 c-20 -8 -23 -16 -23 -70 0 -72 -9 -75 -66 -25 -40 36 -94
48 -94 21 0 -8 32 -43 72 -77 45 -40 78 -80 90 -106 13 -30 25 -43 39 -43 29
0 34 27 16 75 -12 34 -13 57 -6 112 16 125 14 130 -28 113z"/>
<path d="M3404 1764 c-21 -9 -184 -202 -184 -219 0 -23 28 -30 49 -11 22 20
53 20 94 0 35 -18 48 -34 40 -46 -7 -13 17 -38 37 -38 27 0 30 19 30 165 0
123 -2 135 -19 145 -21 11 -29 11 -47 4z m4 -145 c-2 -29 -7 -34 -28 -34 -33
0 -38 30 -9 61 28 29 42 19 37 -27z"/>
<path d="M3642 1657 c-6 -7 -15 -31 -20 -52 -11 -46 -39 -151 -48 -177 -9 -31
50 -58 129 -58 81 0 99 8 132 60 31 49 33 110 5 155 -36 58 -170 106 -198 72z
m129 -76 c45 -45 36 -114 -21 -158 -23 -18 -75 -16 -93 5 -17 18 -14 44 13
122 4 14 11 33 14 43 9 27 53 21 87 -12z"/>
<path d="M5221 1655 c-18 -8 -42 -15 -52 -15 -23 0 -25 -31 -5 -98 8 -26 24
-80 36 -119 22 -74 36 -87 60 -58 10 12 11 24 2 52 -6 20 -9 40 -6 44 7 13 36
-2 61 -32 27 -32 50 -39 83 -27 l24 9 -42 42 c-46 47 -50 58 -27 77 15 13 20
77 7 96 -15 21 -57 44 -82 44 -14 -1 -40 -7 -59 -15z m87 -73 c8 -52 -61 -71
-84 -23 -19 38 -7 52 40 49 34 -2 42 -7 44 -26z"/>
<path d="M3961 1586 c-9 -11 -9 -25 -1 -57 7 -24 16 -63 20 -88 24 -131 34
-151 77 -151 25 0 42 23 117 164 48 91 52 120 15 114 -16 -2 -33 -24 -59 -75
-55 -104 -68 -122 -80 -103 -5 8 -10 25 -10 38 0 13 -7 53 -17 90 -19 80 -37
99 -62 68z"/>
<path d="M4863 1576 c-46 -21 -83 -81 -83 -136 0 -139 166 -203 262 -100 54
59 45 168 -19 217 -41 31 -113 40 -160 19z m102 -50 c72 -31 69 -145 -6 -176
-29 -12 -36 -12 -68 7 -66 38 -65 139 1 168 41 18 33 17 73 1z"/>
<path d="M4323 1551 c-6 -3 -13 -65 -16 -138 -5 -110 -4 -133 9 -144 12 -10
18 -9 32 5 14 14 18 41 20 145 3 121 2 129 -16 133 -11 3 -24 3 -29 -1z"/>
<path d="M4521 1547 c-68 -34 -52 -132 25 -152 22 -5 51 -17 64 -26 20 -13 21
-18 11 -37 -14 -26 -52 -29 -71 -7 -7 8 -23 15 -36 15 -37 0 -33 -45 6 -65 54
-28 116 -16 152 29 40 49 9 105 -72 129 -47 13 -67 35 -57 61 8 20 41 21 72 0
31 -20 57 -11 53 18 -6 42 -93 63 -147 35z"/>
</g>
</svg>
